<svg width="19" height="17" viewBox="0 0 19 17" fill="none" xmlns="http://www.w3.org/2000/svg">
<path d="M17.7291 5.81306L16.4371 1.93706C16.2497 1.37273 15.8892 0.881828 15.4068 0.534091C14.9245 0.186354 14.3448 -0.000527194 13.7502 1.11707e-06H5.13872C4.54409 -0.000527194 3.96441 0.186354 3.48206 0.534091C2.9997 0.881828 2.6392 1.37273 2.45178 1.93706L1.15978 5.81306C0.81621 5.95681 0.522807 6.19893 0.316452 6.50897C0.110097 6.819 -4.54184e-07 7.18312 0 7.55556V12.2778C0 12.9748 0.381555 13.5773 0.944444 13.9051V16.0556C0.944444 16.306 1.04395 16.5463 1.22107 16.7234C1.39818 16.9005 1.63841 17 1.88889 17H2.83333C3.08382 17 3.32404 16.9005 3.50116 16.7234C3.67827 16.5463 3.77778 16.306 3.77778 16.0556V14.1667H15.1111V16.0556C15.1111 16.306 15.2106 16.5463 15.3877 16.7234C15.5648 16.9005 15.8051 17 16.0556 17H17C17.2505 17 17.4907 16.9005 17.6678 16.7234C17.8449 16.5463 17.9444 16.306 17.9444 16.0556V13.9051C18.231 13.7407 18.4691 13.5038 18.635 13.2181C18.8008 12.9324 18.8883 12.6081 18.8889 12.2778V7.55556C18.8889 7.18312 18.7788 6.819 18.5724 6.50897C18.3661 6.19893 18.0727 5.95681 17.7291 5.81306ZM5.13872 1.88889H13.7492C14.1563 1.88889 14.5171 2.14767 14.6455 2.53489L15.6901 5.66667H3.19883L4.24244 2.53489C4.30511 2.34675 4.4254 2.18311 4.58627 2.06716C4.74714 1.95121 4.94042 1.88884 5.13872 1.88889ZM3.30556 11.3333C3.11945 11.3333 2.93519 11.2966 2.76328 11.2253C2.59136 11.154 2.43517 11.0496 2.30363 10.9179C2.17208 10.7863 2.06774 10.63 1.99658 10.4581C1.92542 10.2861 1.88883 10.1018 1.88889 9.91572C1.88895 9.72962 1.92567 9.54535 1.99694 9.37344C2.06822 9.20153 2.17266 9.04534 2.30429 8.91379C2.43593 8.78224 2.59219 8.67791 2.76415 8.60675C2.93611 8.53559 3.1204 8.49899 3.3065 8.49905C3.68235 8.49918 4.04275 8.64861 4.30843 8.91446C4.57411 9.18031 4.72329 9.54082 4.72317 9.91667C4.72304 10.2925 4.57362 10.6529 4.30776 10.9186C4.04191 11.1843 3.6814 11.3335 3.30556 11.3333ZM15.5833 11.3333C15.3972 11.3333 15.213 11.2966 15.0411 11.2253C14.8691 11.154 14.713 11.0496 14.5814 10.9179C14.4499 10.7863 14.3455 10.63 14.2744 10.4581C14.2032 10.2861 14.1666 10.1018 14.1667 9.91572C14.1667 9.72962 14.2034 9.54535 14.2747 9.37344C14.346 9.20153 14.4504 9.04534 14.5821 8.91379C14.7137 8.78224 14.87 8.67791 15.0419 8.60675C15.2139 8.53559 15.3982 8.49899 15.5843 8.49905C15.9601 8.49918 16.3205 8.64861 16.5862 8.91446C16.8519 9.18031 17.0011 9.54082 17.0009 9.91667C17.0008 10.2925 16.8514 10.6529 16.5855 10.9186C16.3197 11.1843 15.9592 11.3335 15.5833 11.3333Z" fill="#A06AD7"/>
</svg>
