<svg width="20" height="18" viewBox="0 0 20 18" xmlns="http://www.w3.org/2000/svg">
<path fill="current" d="M19.822 4.431C19.73 4.29808 19.6072 4.18943 19.464 4.11436C19.3209 4.0393 19.1616 4.00006 19 4H5.333L4.179 1.23C4.02769 0.865226 3.77147 0.553593 3.44282 0.334615C3.11418 0.115638 2.72791 -0.00082104 2.333 4.35724e-06H0V2H2.333L7.077 13.385C7.15299 13.5672 7.28118 13.7228 7.44542 13.8322C7.60967 13.9416 7.80263 14 8 14H16C16.417 14 16.79 13.741 16.937 13.352L19.937 5.352C19.9937 5.20063 20.0129 5.03776 19.9928 4.87735C19.9728 4.71695 19.9142 4.56379 19.822 4.431Z" />
<path fill="current" d="M8.5 18C9.32843 18 10 17.3284 10 16.5C10 15.6716 9.32843 15 8.5 15C7.67157 15 7 15.6716 7 16.5C7 17.3284 7.67157 18 8.5 18Z" />
<path fill="current" d="M15.5 18C16.3284 18 17 17.3284 17 16.5C17 15.6716 16.3284 15 15.5 15C14.6716 15 14 15.6716 14 16.5C14 17.3284 14.6716 18 15.5 18Z" />
</svg>
