<svg width="16" height="16" viewBox="0 0 16 16" fill="none" xmlns="http://www.w3.org/2000/svg">
<path d="M15.4999 2.81985C14.8299 1.44485 12.8999 0.319852 10.6549 0.974852C9.58216 1.28472 8.64619 1.94924 7.99993 2.85985C7.35368 1.94924 6.4177 1.28472 5.34493 0.974852C3.09493 0.329852 1.16993 1.44485 0.499934 2.81985C-0.440066 4.74485 -0.0500664 6.90985 1.65993 9.25485C2.99993 11.0899 4.91493 12.9499 7.69493 15.1099C7.78279 15.1784 7.89102 15.2156 8.00243 15.2156C8.11385 15.2156 8.22208 15.1784 8.30993 15.1099C11.0849 12.9549 13.0049 11.1099 14.3449 9.25485C16.0499 6.90985 16.4399 4.74485 15.4999 2.81985Z" fill="#E84F74"/>
</svg>
