<svg width="19" height="17" fill="current" viewBox="0 0 19 17" xmlns="http://www.w3.org/2000/svg">
<path fill="current" d="M17.6321 8.36072L9.45157 0.186175C9.39267 0.127158 9.32271 0.0803364 9.24569 0.0483901C9.16867 0.0164437 9.08611 0 9.00272 0C8.91934 0 8.83678 0.0164437 8.75976 0.0483901C8.68274 0.0803364 8.61278 0.127158 8.55388 0.186175L0.373376 8.36072C0.135051 8.59905 0 8.92277 0 9.2604C0 9.96147 0.569994 10.5315 1.27107 10.5315H2.13301V16.3645C2.13301 16.716 2.41701 17 2.76854 17H7.73166V12.5513H9.95603V17H15.2369C15.5884 17 15.8724 16.716 15.8724 16.3645V10.5315H16.7344C17.072 10.5315 17.3957 10.3984 17.6341 10.1581C18.1286 9.66158 18.1286 8.85723 17.6321 8.36072Z"/>
</svg>
