<svg width="32" height="23" viewBox="0 0 32 23" fill="none" xmlns="http://www.w3.org/2000/svg">
<path d="M16.7225 21.9809C14.0442 21.9809 11.3629 21.9809 8.68455 21.9809C5.00407 21.9662 2.08333 19.8081 1.2349 16.4972C0.811996 14.8396 0.963172 13.0876 1.66378 11.5269C2.36438 9.96626 3.57308 8.68901 5.09276 7.90346C6.10166 7.39481 6.94766 6.61334 7.53459 5.64787C9.71627 2.17432 13.045 0.622309 17.0329 1.07757C21.4672 1.58899 24.5978 4.08995 26.0109 8.41193C26.3657 9.49981 26.6849 10.2743 27.8585 10.8035C30.191 11.8559 31.4533 14.8653 30.8502 17.3072C30.1614 20.086 27.9827 21.9396 25.2512 21.978C22.4102 22.0105 19.5664 21.9809 16.7225 21.9809Z" stroke="white" stroke-width="1.94233" stroke-miterlimit="10"/>
<path d="M23.439 10.6439C23.4136 10.358 23.2802 10.0925 23.0661 9.90142C22.8519 9.71033 22.573 9.60795 22.2861 9.6151C21.6949 9.6151 21.1273 9.6151 20.5479 9.6151C20.1074 9.6151 19.661 9.6151 19.2323 9.6151C17.5059 9.6151 16.1579 10.3482 15.3272 11.8618C14.4965 13.3754 14.5881 14.9274 15.543 16.3907C15.679 16.6006 15.676 16.7189 15.4957 16.8874C15.0256 17.3367 14.5763 17.8068 14.1122 18.262C13.8727 18.4985 13.7456 18.7587 14.0146 19.0336C14.2836 19.3085 14.5497 19.1991 14.7892 18.9626C15.2178 18.534 15.676 18.1201 16.0721 17.6678C16.3175 17.3958 16.4919 17.3929 16.8023 17.5939C17.4045 17.981 18.0937 18.2115 18.8075 18.2646C19.5214 18.3178 20.2371 18.1918 20.8899 17.8981C21.5427 17.6045 22.1118 17.1525 22.5456 16.5831C22.9794 16.0137 23.2642 15.345 23.374 14.6377C23.5839 13.3044 23.4686 11.9801 23.439 10.6439ZM19.3535 14.3835C18.6697 15.0752 17.9799 15.765 17.2842 16.4528C17.228 16.509 17.163 16.5592 17.1009 16.6124C16.8667 16.4712 16.6651 16.2817 16.5097 16.0567C16.3678 15.8557 16.5954 15.7877 16.6841 15.6931C17.3345 15.0309 17.9996 14.3776 18.6529 13.7183C18.8953 13.473 19.1466 13.3163 19.457 13.5853C19.6994 13.7863 19.6639 14.0701 19.3535 14.3835Z" fill="white"/>
<path d="M13.8756 13.2988C13.4854 12.9263 13.0952 12.5568 12.6931 12.1813C12.3768 11.8857 12.3354 11.5901 12.5719 11.3773C12.8676 11.1023 13.1307 11.2531 13.376 11.4925L14.0885 12.1725C14.1706 11.9429 14.2694 11.7196 14.3841 11.5044C14.9073 10.4933 15.605 9.69222 16.551 9.33451C15.6848 7.8978 14.3959 7.36863 12.7079 7.39524L11.3954 7.42776C10.8041 7.44254 10.2365 7.44549 9.65711 7.4721C9.37002 7.47532 9.09481 7.58721 8.88691 7.78523C8.67902 7.98326 8.55388 8.2527 8.5367 8.53929C8.5367 9.86368 8.45393 11.1999 8.68747 12.5124C9.1782 15.2706 11.8802 16.7812 14.3368 15.7643C13.9721 14.9963 13.8132 14.1467 13.8756 13.2988Z" fill="white"/>
</svg>
