<svg width="17" height="18" viewBox="0 0 17 18" fill="none" xmlns="http://www.w3.org/2000/svg">
<path d="M0.0232862 5.88421C0.392783 4.74329 0.999773 3.69358 1.80429 2.80421C1.87078 2.73072 1.95762 2.67866 2.05376 2.65462C2.14991 2.63058 2.25103 2.63566 2.34429 2.66921L4.26229 3.35521C4.39883 3.40397 4.54434 3.42245 4.68874 3.40938C4.83313 3.39631 4.97296 3.35199 5.09853 3.27951C5.22409 3.20702 5.33239 3.1081 5.41593 2.98959C5.49946 2.87109 5.55622 2.73584 5.58229 2.59321L5.94729 0.58721C5.96496 0.489559 6.0113 0.399377 6.08039 0.328145C6.14949 0.256913 6.23822 0.207852 6.33529 0.18721C7.50714 -0.0624034 8.71843 -0.0624034 9.89029 0.18721C9.98735 0.207852 10.0761 0.256913 10.1452 0.328145C10.2143 0.399377 10.2606 0.489559 10.2783 0.58721L10.6443 2.59321C10.6703 2.73584 10.7271 2.87109 10.8106 2.98959C10.8942 3.1081 11.0025 3.20702 11.128 3.27951C11.2536 3.35199 11.3934 3.39631 11.5378 3.40938C11.6822 3.42245 11.8277 3.40397 11.9643 3.35521L13.8833 2.66921C13.9765 2.636 14.0775 2.63119 14.1734 2.6554C14.2694 2.67961 14.356 2.73175 14.4223 2.80521C15.2263 3.69438 15.833 4.74373 16.2023 5.88421C16.2328 5.97842 16.2346 6.07955 16.2075 6.17479C16.1805 6.27004 16.1257 6.35511 16.0503 6.41921L14.4953 7.73921C14.3848 7.83309 14.2961 7.94986 14.2352 8.08143C14.1744 8.21301 14.1429 8.35624 14.1429 8.50121C14.1429 8.64618 14.1744 8.78941 14.2352 8.92099C14.2961 9.05256 14.3848 9.16933 14.4953 9.26321L16.0503 10.5832C16.1257 10.6473 16.1805 10.7324 16.2075 10.8276C16.2346 10.9229 16.2328 11.024 16.2023 11.1182C15.8331 12.259 15.2264 13.3087 14.4223 14.1982C14.3558 14.2717 14.269 14.3238 14.1728 14.3478C14.0767 14.3718 13.9755 14.3668 13.8823 14.3332L11.9643 13.6472C11.8277 13.5985 11.6822 13.58 11.5378 13.593C11.3934 13.6061 11.2536 13.6504 11.128 13.7229C11.0025 13.7954 10.8942 13.8943 10.8106 14.0128C10.7271 14.1313 10.6703 14.2666 10.6443 14.4092L10.2773 16.4162C10.2595 16.5135 10.2132 16.6034 10.1443 16.6744C10.0754 16.7455 9.98703 16.7945 9.89029 16.8152C8.71844 17.0649 7.50714 17.0649 6.33529 16.8152C6.23822 16.7946 6.14949 16.7455 6.08039 16.6743C6.0113 16.603 5.96496 16.5129 5.94729 16.4152L5.58229 14.4092C5.55622 14.2666 5.49946 14.1313 5.41593 14.0128C5.33239 13.8943 5.22409 13.7954 5.09853 13.7229C4.97296 13.6504 4.83313 13.6061 4.68874 13.593C4.54434 13.58 4.39883 13.5985 4.26229 13.6472L2.34329 14.3332C2.25007 14.3664 2.14909 14.3712 2.05314 14.347C1.95719 14.3228 1.87059 14.2707 1.80429 14.1972C1.00023 13.3081 0.393587 12.2587 0.0242863 11.1182C-0.00619753 11.024 -0.00802521 10.9229 0.019035 10.8276C0.0460952 10.7324 0.100825 10.6473 0.176286 10.5832L1.73129 9.26321C1.84175 9.16933 1.93048 9.05256 1.99134 8.92099C2.05219 8.78941 2.08371 8.64618 2.08371 8.50121C2.08371 8.35624 2.05219 8.21301 1.99134 8.08143C1.93048 7.94986 1.84175 7.83309 1.73129 7.73921L0.176286 6.41921C0.100825 6.35511 0.0460952 6.27004 0.019035 6.17479C-0.00802521 6.07955 -0.00619753 5.97842 0.0242863 5.88421H0.0232862ZM6.11329 8.50121C6.11329 9.03164 6.324 9.54035 6.69907 9.91542C7.07415 10.2905 7.58285 10.5012 8.11329 10.5012C8.64372 10.5012 9.15243 10.2905 9.5275 9.91542C9.90257 9.54035 10.1133 9.03164 10.1133 8.50121C10.1133 7.97078 9.90257 7.46207 9.5275 7.087C9.15243 6.71192 8.64372 6.50121 8.11329 6.50121C7.58285 6.50121 7.07415 6.71192 6.69907 7.087C6.324 7.46207 6.11329 7.97078 6.11329 8.50121Z"/>
</svg>
